<svg width="32" height="32" viewBox="0 0 32 32" fill="none" xmlns="http://www.w3.org/2000/svg">
<path d="M16.0003 0C9.61001 0 4.41113 5.19887 4.41113 11.5891C4.41113 19.5196 14.7823 31.1621 15.2239 31.6538C15.6386 32.1157 16.3628 32.1149 16.7768 31.6538C17.2183 31.1621 27.5895 19.5196 27.5895 11.5891C27.5894 5.19887 22.3906 0 16.0003 0Z" fill="#28975F"/>
<path d="M9 17H23V18H9V17Z" fill="#F6FCF8"/>
<path d="M11 10H13V16H11V10Z" fill="#F6FCF8"/>
<path d="M15 10H17V16H15V10Z" fill="#F6FCF8"/>
<path d="M19 10H21V16H19V10Z" fill="#F6FCF8"/>
<path d="M9 9L16 5L23 9H9Z" fill="#F6FCF8"/>
</svg>
